<?xml version="1.0" encoding="utf-8" standalone="no"?>
<!DOCTYPE svg PUBLIC "-//W3C//DTD SVG 1.1//EN"
  "http://www.w3.org/Graphics/SVG/1.1/DTD/svg11.dtd">
<svg xmlns:xlink="http://www.w3.org/1999/xlink" width="864pt" height="576pt" viewBox="0 0 864 576" xmlns="http://www.w3.org/2000/svg" version="1.1">
 <metadata>
  <rdf:RDF xmlns:dc="http://purl.org/dc/elements/1.1/" xmlns:cc="http://creativecommons.org/ns#" xmlns:rdf="http://www.w3.org/1999/02/22-rdf-syntax-ns#">
   <cc:Work>
    <dc:type rdf:resource="http://purl.org/dc/dcmitype/StillImage"/>
    <dc:date>2024-06-11T00:35:37.406454</dc:date>
    <dc:format>image/svg+xml</dc:format>
    <dc:creator>
     <cc:Agent>
      <dc:title>Matplotlib v3.8.3, https://matplotlib.org/</dc:title>
     </cc:Agent>
    </dc:creator>
   </cc:Work>
  </rdf:RDF>
 </metadata>
 <defs>
  <style type="text/css">*{stroke-linejoin: round; stroke-linecap: butt}</style>
 </defs>
 <g id="figure_1">
  <g id="patch_1">
   <path d="M 0 576 
L 864 576 
L 864 0 
L 0 0 
z
" style="fill: #ffffff"/>
  </g>
  <g id="axes_1">
   <g id="patch_2">
    <path d="M 108 512.64 
L 777.6 512.64 
L 777.6 69.12 
L 108 69.12 
z
" style="fill: #eaeaf2"/>
   </g>
   <g id="matplotlib.axis_1">
    <g id="xtick_1">
     <g id="text_1">
      <!-- male -->
      <g style="fill: #262626" transform="translate(257.519414 533.950391) scale(0.165 -0.165)">
       <defs>
        <path id="ArialMT-6d" d="M 422 0 
L 422 3319 
L 925 3319 
L 925 2853 
Q 1081 3097 1340 3245 
Q 1600 3394 1931 3394 
Q 2300 3394 2536 3241 
Q 2772 3088 2869 2813 
Q 3263 3394 3894 3394 
Q 4388 3394 4653 3120 
Q 4919 2847 4919 2278 
L 4919 0 
L 4359 0 
L 4359 2091 
Q 4359 2428 4304 2576 
Q 4250 2725 4106 2815 
Q 3963 2906 3769 2906 
Q 3419 2906 3187 2673 
Q 2956 2441 2956 1928 
L 2956 0 
L 2394 0 
L 2394 2156 
Q 2394 2531 2256 2718 
Q 2119 2906 1806 2906 
Q 1569 2906 1367 2781 
Q 1166 2656 1075 2415 
Q 984 2175 984 1722 
L 984 0 
L 422 0 
z
" transform="scale(0.015625)"/>
        <path id="ArialMT-61" d="M 2588 409 
Q 2275 144 1986 34 
Q 1697 -75 1366 -75 
Q 819 -75 525 192 
Q 231 459 231 875 
Q 231 1119 342 1320 
Q 453 1522 633 1644 
Q 813 1766 1038 1828 
Q 1203 1872 1538 1913 
Q 2219 1994 2541 2106 
Q 2544 2222 2544 2253 
Q 2544 2597 2384 2738 
Q 2169 2928 1744 2928 
Q 1347 2928 1158 2789 
Q 969 2650 878 2297 
L 328 2372 
Q 403 2725 575 2942 
Q 747 3159 1072 3276 
Q 1397 3394 1825 3394 
Q 2250 3394 2515 3294 
Q 2781 3194 2906 3042 
Q 3031 2891 3081 2659 
Q 3109 2516 3109 2141 
L 3109 1391 
Q 3109 606 3145 398 
Q 3181 191 3288 0 
L 2700 0 
Q 2613 175 2588 409 
z
M 2541 1666 
Q 2234 1541 1622 1453 
Q 1275 1403 1131 1340 
Q 988 1278 909 1158 
Q 831 1038 831 891 
Q 831 666 1001 516 
Q 1172 366 1500 366 
Q 1825 366 2078 508 
Q 2331 650 2450 897 
Q 2541 1088 2541 1459 
L 2541 1666 
z
" transform="scale(0.015625)"/>
        <path id="ArialMT-6c" d="M 409 0 
L 409 4581 
L 972 4581 
L 972 0 
L 409 0 
z
" transform="scale(0.015625)"/>
        <path id="ArialMT-65" d="M 2694 1069 
L 3275 997 
Q 3138 488 2766 206 
Q 2394 -75 1816 -75 
Q 1088 -75 661 373 
Q 234 822 234 1631 
Q 234 2469 665 2931 
Q 1097 3394 1784 3394 
Q 2450 3394 2872 2941 
Q 3294 2488 3294 1666 
Q 3294 1616 3291 1516 
L 816 1516 
Q 847 969 1125 678 
Q 1403 388 1819 388 
Q 2128 388 2347 550 
Q 2566 713 2694 1069 
z
M 847 1978 
L 2700 1978 
Q 2663 2397 2488 2606 
Q 2219 2931 1791 2931 
Q 1403 2931 1139 2672 
Q 875 2413 847 1978 
z
" transform="scale(0.015625)"/>
       </defs>
       <use xlink:href="#ArialMT-6d"/>
       <use xlink:href="#ArialMT-61" x="83.300781"/>
       <use xlink:href="#ArialMT-6c" x="138.916016"/>
       <use xlink:href="#ArialMT-65" x="161.132812"/>
      </g>
     </g>
    </g>
    <g id="xtick_2">
     <g id="text_2">
      <!-- female -->
      <g style="fill: #262626" transform="translate(585.439687 533.950391) scale(0.165 -0.165)">
       <defs>
        <path id="ArialMT-66" d="M 556 0 
L 556 2881 
L 59 2881 
L 59 3319 
L 556 3319 
L 556 3672 
Q 556 4006 616 4169 
Q 697 4388 901 4523 
Q 1106 4659 1475 4659 
Q 1713 4659 2000 4603 
L 1916 4113 
Q 1741 4144 1584 4144 
Q 1328 4144 1222 4034 
Q 1116 3925 1116 3625 
L 1116 3319 
L 1763 3319 
L 1763 2881 
L 1116 2881 
L 1116 0 
L 556 0 
z
" transform="scale(0.015625)"/>
       </defs>
       <use xlink:href="#ArialMT-66"/>
       <use xlink:href="#ArialMT-65" x="27.783203"/>
       <use xlink:href="#ArialMT-6d" x="83.398438"/>
       <use xlink:href="#ArialMT-61" x="166.699219"/>
       <use xlink:href="#ArialMT-6c" x="222.314453"/>
       <use xlink:href="#ArialMT-65" x="244.53125"/>
      </g>
     </g>
    </g>
    <g id="text_3">
     <!-- sex -->
     <g style="fill: #262626" transform="translate(428.795156 554.113828) scale(0.18 -0.18)">
      <defs>
       <path id="ArialMT-73" d="M 197 991 
L 753 1078 
Q 800 744 1014 566 
Q 1228 388 1613 388 
Q 2000 388 2187 545 
Q 2375 703 2375 916 
Q 2375 1106 2209 1216 
Q 2094 1291 1634 1406 
Q 1016 1563 777 1677 
Q 538 1791 414 1992 
Q 291 2194 291 2438 
Q 291 2659 392 2848 
Q 494 3038 669 3163 
Q 800 3259 1026 3326 
Q 1253 3394 1513 3394 
Q 1903 3394 2198 3281 
Q 2494 3169 2634 2976 
Q 2775 2784 2828 2463 
L 2278 2388 
Q 2241 2644 2061 2787 
Q 1881 2931 1553 2931 
Q 1166 2931 1000 2803 
Q 834 2675 834 2503 
Q 834 2394 903 2306 
Q 972 2216 1119 2156 
Q 1203 2125 1616 2013 
Q 2213 1853 2448 1751 
Q 2684 1650 2818 1456 
Q 2953 1263 2953 975 
Q 2953 694 2789 445 
Q 2625 197 2315 61 
Q 2006 -75 1616 -75 
Q 969 -75 630 194 
Q 291 463 197 991 
z
" transform="scale(0.015625)"/>
       <path id="ArialMT-78" d="M 47 0 
L 1259 1725 
L 138 3319 
L 841 3319 
L 1350 2541 
Q 1494 2319 1581 2169 
Q 1719 2375 1834 2534 
L 2394 3319 
L 3066 3319 
L 1919 1756 
L 3153 0 
L 2463 0 
L 1781 1031 
L 1600 1309 
L 728 0 
L 47 0 
z
" transform="scale(0.015625)"/>
      </defs>
      <use xlink:href="#ArialMT-73"/>
      <use xlink:href="#ArialMT-65" x="50"/>
      <use xlink:href="#ArialMT-78" x="105.615234"/>
     </g>
    </g>
   </g>
   <g id="matplotlib.axis_2">
    <g id="ytick_1">
     <g id="line2d_1">
      <path d="M 108 494.607972 
L 777.6 494.607972 
" clip-path="url(#pb17ca2e60d)" style="fill: none; stroke: #ffffff; stroke-linecap: round"/>
     </g>
     <g id="text_4">
      <!-- 0 -->
      <g style="fill: #262626" transform="translate(89.324453 500.513167) scale(0.165 -0.165)">
       <defs>
        <path id="ArialMT-30" d="M 266 2259 
Q 266 3072 433 3567 
Q 600 4063 929 4331 
Q 1259 4600 1759 4600 
Q 2128 4600 2406 4451 
Q 2684 4303 2865 4023 
Q 3047 3744 3150 3342 
Q 3253 2941 3253 2259 
Q 3253 1453 3087 958 
Q 2922 463 2592 192 
Q 2263 -78 1759 -78 
Q 1097 -78 719 397 
Q 266 969 266 2259 
z
M 844 2259 
Q 844 1131 1108 757 
Q 1372 384 1759 384 
Q 2147 384 2411 759 
Q 2675 1134 2675 2259 
Q 2675 3391 2411 3762 
Q 2147 4134 1753 4134 
Q 1366 4134 1134 3806 
Q 844 3388 844 2259 
z
" transform="scale(0.015625)"/>
       </defs>
       <use xlink:href="#ArialMT-30"/>
      </g>
     </g>
    </g>
    <g id="ytick_2">
     <g id="line2d_2">
      <path d="M 108 443.941975 
L 777.6 443.941975 
" clip-path="url(#pb17ca2e60d)" style="fill: none; stroke: #ffffff; stroke-linecap: round"/>
     </g>
     <g id="text_5">
      <!-- 10 -->
      <g style="fill: #262626" transform="translate(80.148906 449.847171) scale(0.165 -0.165)">
       <defs>
        <path id="ArialMT-31" d="M 2384 0 
L 1822 0 
L 1822 3584 
Q 1619 3391 1289 3197 
Q 959 3003 697 2906 
L 697 3450 
Q 1169 3672 1522 3987 
Q 1875 4303 2022 4600 
L 2384 4600 
L 2384 0 
z
" transform="scale(0.015625)"/>
       </defs>
       <use xlink:href="#ArialMT-31"/>
       <use xlink:href="#ArialMT-30" x="55.615234"/>
      </g>
     </g>
    </g>
    <g id="ytick_3">
     <g id="line2d_3">
      <path d="M 108 393.275979 
L 777.6 393.275979 
" clip-path="url(#pb17ca2e60d)" style="fill: none; stroke: #ffffff; stroke-linecap: round"/>
     </g>
     <g id="text_6">
      <!-- 20 -->
      <g style="fill: #262626" transform="translate(80.148906 399.181174) scale(0.165 -0.165)">
       <defs>
        <path id="ArialMT-32" d="M 3222 541 
L 3222 0 
L 194 0 
Q 188 203 259 391 
Q 375 700 629 1000 
Q 884 1300 1366 1694 
Q 2113 2306 2375 2664 
Q 2638 3022 2638 3341 
Q 2638 3675 2398 3904 
Q 2159 4134 1775 4134 
Q 1369 4134 1125 3890 
Q 881 3647 878 3216 
L 300 3275 
Q 359 3922 746 4261 
Q 1134 4600 1788 4600 
Q 2447 4600 2831 4234 
Q 3216 3869 3216 3328 
Q 3216 3053 3103 2787 
Q 2991 2522 2730 2228 
Q 2469 1934 1863 1422 
Q 1356 997 1212 845 
Q 1069 694 975 541 
L 3222 541 
z
" transform="scale(0.015625)"/>
       </defs>
       <use xlink:href="#ArialMT-32"/>
       <use xlink:href="#ArialMT-30" x="55.615234"/>
      </g>
     </g>
    </g>
    <g id="ytick_4">
     <g id="line2d_4">
      <path d="M 108 342.609982 
L 777.6 342.609982 
" clip-path="url(#pb17ca2e60d)" style="fill: none; stroke: #ffffff; stroke-linecap: round"/>
     </g>
     <g id="text_7">
      <!-- 30 -->
      <g style="fill: #262626" transform="translate(80.148906 348.515178) scale(0.165 -0.165)">
       <defs>
        <path id="ArialMT-33" d="M 269 1209 
L 831 1284 
Q 928 806 1161 595 
Q 1394 384 1728 384 
Q 2125 384 2398 659 
Q 2672 934 2672 1341 
Q 2672 1728 2419 1979 
Q 2166 2231 1775 2231 
Q 1616 2231 1378 2169 
L 1441 2663 
Q 1497 2656 1531 2656 
Q 1891 2656 2178 2843 
Q 2466 3031 2466 3422 
Q 2466 3731 2256 3934 
Q 2047 4138 1716 4138 
Q 1388 4138 1169 3931 
Q 950 3725 888 3313 
L 325 3413 
Q 428 3978 793 4289 
Q 1159 4600 1703 4600 
Q 2078 4600 2393 4439 
Q 2709 4278 2876 4000 
Q 3044 3722 3044 3409 
Q 3044 3113 2884 2869 
Q 2725 2625 2413 2481 
Q 2819 2388 3044 2092 
Q 3269 1797 3269 1353 
Q 3269 753 2831 336 
Q 2394 -81 1725 -81 
Q 1122 -81 723 278 
Q 325 638 269 1209 
z
" transform="scale(0.015625)"/>
       </defs>
       <use xlink:href="#ArialMT-33"/>
       <use xlink:href="#ArialMT-30" x="55.615234"/>
      </g>
     </g>
    </g>
    <g id="ytick_5">
     <g id="line2d_5">
      <path d="M 108 291.943986 
L 777.6 291.943986 
" clip-path="url(#pb17ca2e60d)" style="fill: none; stroke: #ffffff; stroke-linecap: round"/>
     </g>
     <g id="text_8">
      <!-- 40 -->
      <g style="fill: #262626" transform="translate(80.148906 297.849181) scale(0.165 -0.165)">
       <defs>
        <path id="ArialMT-34" d="M 2069 0 
L 2069 1097 
L 81 1097 
L 81 1613 
L 2172 4581 
L 2631 4581 
L 2631 1613 
L 3250 1613 
L 3250 1097 
L 2631 1097 
L 2631 0 
L 2069 0 
z
M 2069 1613 
L 2069 3678 
L 634 1613 
L 2069 1613 
z
" transform="scale(0.015625)"/>
       </defs>
       <use xlink:href="#ArialMT-34"/>
       <use xlink:href="#ArialMT-30" x="55.615234"/>
      </g>
     </g>
    </g>
    <g id="ytick_6">
     <g id="line2d_6">
      <path d="M 108 241.277989 
L 777.6 241.277989 
" clip-path="url(#pb17ca2e60d)" style="fill: none; stroke: #ffffff; stroke-linecap: round"/>
     </g>
     <g id="text_9">
      <!-- 50 -->
      <g style="fill: #262626" transform="translate(80.148906 247.183185) scale(0.165 -0.165)">
       <defs>
        <path id="ArialMT-35" d="M 266 1200 
L 856 1250 
Q 922 819 1161 601 
Q 1400 384 1738 384 
Q 2144 384 2425 690 
Q 2706 997 2706 1503 
Q 2706 1984 2436 2262 
Q 2166 2541 1728 2541 
Q 1456 2541 1237 2417 
Q 1019 2294 894 2097 
L 366 2166 
L 809 4519 
L 3088 4519 
L 3088 3981 
L 1259 3981 
L 1013 2750 
Q 1425 3038 1878 3038 
Q 2478 3038 2890 2622 
Q 3303 2206 3303 1553 
Q 3303 931 2941 478 
Q 2500 -78 1738 -78 
Q 1113 -78 717 272 
Q 322 622 266 1200 
z
" transform="scale(0.015625)"/>
       </defs>
       <use xlink:href="#ArialMT-35"/>
       <use xlink:href="#ArialMT-30" x="55.615234"/>
      </g>
     </g>
    </g>
    <g id="ytick_7">
     <g id="line2d_7">
      <path d="M 108 190.611993 
L 777.6 190.611993 
" clip-path="url(#pb17ca2e60d)" style="fill: none; stroke: #ffffff; stroke-linecap: round"/>
     </g>
     <g id="text_10">
      <!-- 60 -->
      <g style="fill: #262626" transform="translate(80.148906 196.517188) scale(0.165 -0.165)">
       <defs>
        <path id="ArialMT-36" d="M 3184 3459 
L 2625 3416 
Q 2550 3747 2413 3897 
Q 2184 4138 1850 4138 
Q 1581 4138 1378 3988 
Q 1113 3794 959 3422 
Q 806 3050 800 2363 
Q 1003 2672 1297 2822 
Q 1591 2972 1913 2972 
Q 2475 2972 2870 2558 
Q 3266 2144 3266 1488 
Q 3266 1056 3080 686 
Q 2894 316 2569 119 
Q 2244 -78 1831 -78 
Q 1128 -78 684 439 
Q 241 956 241 2144 
Q 241 3472 731 4075 
Q 1159 4600 1884 4600 
Q 2425 4600 2770 4297 
Q 3116 3994 3184 3459 
z
M 888 1484 
Q 888 1194 1011 928 
Q 1134 663 1356 523 
Q 1578 384 1822 384 
Q 2178 384 2434 671 
Q 2691 959 2691 1453 
Q 2691 1928 2437 2201 
Q 2184 2475 1800 2475 
Q 1419 2475 1153 2201 
Q 888 1928 888 1484 
z
" transform="scale(0.015625)"/>
       </defs>
       <use xlink:href="#ArialMT-36"/>
       <use xlink:href="#ArialMT-30" x="55.615234"/>
      </g>
     </g>
    </g>
    <g id="ytick_8">
     <g id="line2d_8">
      <path d="M 108 139.945996 
L 777.6 139.945996 
" clip-path="url(#pb17ca2e60d)" style="fill: none; stroke: #ffffff; stroke-linecap: round"/>
     </g>
     <g id="text_11">
      <!-- 70 -->
      <g style="fill: #262626" transform="translate(80.148906 145.851192) scale(0.165 -0.165)">
       <defs>
        <path id="ArialMT-37" d="M 303 3981 
L 303 4522 
L 3269 4522 
L 3269 4084 
Q 2831 3619 2401 2847 
Q 1972 2075 1738 1259 
Q 1569 684 1522 0 
L 944 0 
Q 953 541 1156 1306 
Q 1359 2072 1739 2783 
Q 2119 3494 2547 3981 
L 303 3981 
z
" transform="scale(0.015625)"/>
       </defs>
       <use xlink:href="#ArialMT-37"/>
       <use xlink:href="#ArialMT-30" x="55.615234"/>
      </g>
     </g>
    </g>
    <g id="ytick_9">
     <g id="line2d_9">
      <path d="M 108 89.28 
L 777.6 89.28 
" clip-path="url(#pb17ca2e60d)" style="fill: none; stroke: #ffffff; stroke-linecap: round"/>
     </g>
     <g id="text_12">
      <!-- 80 -->
      <g style="fill: #262626" transform="translate(80.148906 95.185195) scale(0.165 -0.165)">
       <defs>
        <path id="ArialMT-38" d="M 1131 2484 
Q 781 2613 612 2850 
Q 444 3088 444 3419 
Q 444 3919 803 4259 
Q 1163 4600 1759 4600 
Q 2359 4600 2725 4251 
Q 3091 3903 3091 3403 
Q 3091 3084 2923 2848 
Q 2756 2613 2416 2484 
Q 2838 2347 3058 2040 
Q 3278 1734 3278 1309 
Q 3278 722 2862 322 
Q 2447 -78 1769 -78 
Q 1091 -78 675 323 
Q 259 725 259 1325 
Q 259 1772 486 2073 
Q 713 2375 1131 2484 
z
M 1019 3438 
Q 1019 3113 1228 2906 
Q 1438 2700 1772 2700 
Q 2097 2700 2305 2904 
Q 2513 3109 2513 3406 
Q 2513 3716 2298 3927 
Q 2084 4138 1766 4138 
Q 1444 4138 1231 3931 
Q 1019 3725 1019 3438 
z
M 838 1322 
Q 838 1081 952 856 
Q 1066 631 1291 507 
Q 1516 384 1775 384 
Q 2178 384 2440 643 
Q 2703 903 2703 1303 
Q 2703 1709 2433 1975 
Q 2163 2241 1756 2241 
Q 1359 2241 1098 1978 
Q 838 1716 838 1322 
z
" transform="scale(0.015625)"/>
       </defs>
       <use xlink:href="#ArialMT-38"/>
       <use xlink:href="#ArialMT-30" x="55.615234"/>
      </g>
     </g>
    </g>
    <g id="text_13">
     <!-- fare -->
     <g style="fill: #262626" transform="translate(72.571406 306.386719) rotate(-90) scale(0.18 -0.18)">
      <defs>
       <path id="ArialMT-72" d="M 416 0 
L 416 3319 
L 922 3319 
L 922 2816 
Q 1116 3169 1280 3281 
Q 1444 3394 1641 3394 
Q 1925 3394 2219 3213 
L 2025 2691 
Q 1819 2813 1613 2813 
Q 1428 2813 1281 2702 
Q 1134 2591 1072 2394 
Q 978 2094 978 1738 
L 978 0 
L 416 0 
z
" transform="scale(0.015625)"/>
      </defs>
      <use xlink:href="#ArialMT-66"/>
      <use xlink:href="#ArialMT-61" x="27.783203"/>
      <use xlink:href="#ArialMT-72" x="83.398438"/>
      <use xlink:href="#ArialMT-65" x="116.699219"/>
     </g>
    </g>
   </g>
   <g id="PatchCollection_1">
    <path d="M 174.96 395.809279 
L 197.28 395.809279 
L 197.28 367.942981 
L 174.96 367.942981 
z
" clip-path="url(#pb17ca2e60d)" style="fill: #6d6de6; stroke: #262626; stroke-width: 0.75"/>
    <path d="M 163.8 367.942981 
L 208.44 367.942981 
L 208.44 342.609982 
L 163.8 342.609982 
z
" clip-path="url(#pb17ca2e60d)" style="fill: #4a4ae3; stroke: #262626; stroke-width: 0.75"/>
    <path d="M 141.48 342.609982 
L 230.76 342.609982 
L 230.76 236.21139 
L 141.48 236.21139 
z
" clip-path="url(#pb17ca2e60d)" style="fill: #2020df; stroke: #262626; stroke-width: 0.75"/>
    <path d="M 163.8 236.21139 
L 208.44 236.21139 
L 208.44 190.611993 
L 163.8 190.611993 
z
" clip-path="url(#pb17ca2e60d)" style="fill: #4a4ae3; stroke: #262626; stroke-width: 0.75"/>
    <path d="M 174.96 190.611993 
L 197.28 190.611993 
L 197.28 170.345594 
L 174.96 170.345594 
z
" clip-path="url(#pb17ca2e60d)" style="fill: #6d6de6; stroke: #262626; stroke-width: 0.75"/>
   </g>
   <g id="PathCollection_1">
    <defs>
     <path id="C0_0_1448ec33c9" d="M 0 2.5 
C 0.663008 2.5 1.29895 2.236584 1.767767 1.767767 
C 2.236584 1.29895 2.5 0.663008 2.5 -0 
C 2.5 -0.663008 2.236584 -1.29895 1.767767 -1.767767 
C 1.29895 -2.236584 0.663008 -2.5 0 -2.5 
C -0.663008 -2.5 -1.29895 -2.236584 -1.767767 -1.767767 
C -2.236584 -1.29895 -2.5 -0.663008 -2.5 0 
C -2.5 0.663008 -2.236584 1.29895 -1.767767 1.767767 
C -1.29895 2.236584 -0.663008 2.5 0 2.5 
z
"/>
    </defs>
    <g clip-path="url(#pb17ca2e60d)">
     <use xlink:href="#C0_0_1448ec33c9" x="186.12" y="398.342579" style="fill: none; stroke: #737373"/>
    </g>
    <g clip-path="url(#pb17ca2e60d)">
     <use xlink:href="#C0_0_1448ec33c9" x="186.12" y="165.278995" style="fill: none; stroke: #737373"/>
    </g>
    <g clip-path="url(#pb17ca2e60d)">
     <use xlink:href="#C0_0_1448ec33c9" x="186.12" y="134.879397" style="fill: none; stroke: #737373"/>
    </g>
    <g clip-path="url(#pb17ca2e60d)">
     <use xlink:href="#C0_0_1448ec33c9" x="186.12" y="489.9467" style="fill: none; stroke: #737373"/>
    </g>
    <g clip-path="url(#pb17ca2e60d)">
     <use xlink:href="#C0_0_1448ec33c9" x="186.12" y="474.341573" style="fill: none; stroke: #737373"/>
    </g>
    <g clip-path="url(#pb17ca2e60d)">
     <use xlink:href="#C0_0_1448ec33c9" x="186.12" y="165.278995" style="fill: none; stroke: #737373"/>
    </g>
    <g clip-path="url(#pb17ca2e60d)">
     <use xlink:href="#C0_0_1448ec33c9" x="186.12" y="134.879397" style="fill: none; stroke: #737373"/>
    </g>
    <g clip-path="url(#pb17ca2e60d)">
     <use xlink:href="#C0_0_1448ec33c9" x="186.12" y="403.409178" style="fill: none; stroke: #737373"/>
    </g>
    <g clip-path="url(#pb17ca2e60d)">
     <use xlink:href="#C0_0_1448ec33c9" x="186.12" y="408.475778" style="fill: none; stroke: #737373"/>
    </g>
    <g clip-path="url(#pb17ca2e60d)">
     <use xlink:href="#C0_0_1448ec33c9" x="186.12" y="89.28" style="fill: none; stroke: #737373"/>
    </g>
    <g clip-path="url(#pb17ca2e60d)">
     <use xlink:href="#C0_0_1448ec33c9" x="186.12" y="139.945996" style="fill: none; stroke: #737373"/>
    </g>
    <g clip-path="url(#pb17ca2e60d)">
     <use xlink:href="#C0_0_1448ec33c9" x="186.12" y="398.342579" style="fill: none; stroke: #737373"/>
    </g>
    <g clip-path="url(#pb17ca2e60d)">
     <use xlink:href="#C0_0_1448ec33c9" x="186.12" y="438.875376" style="fill: none; stroke: #737373"/>
    </g>
   </g>
   <g id="PatchCollection_2">
    <path d="M 264.24 479.408173 
L 286.56 479.408173 
L 286.56 403.409178 
L 264.24 403.409178 
z
" clip-path="url(#pb17ca2e60d)" style="fill: #e66d6d; stroke: #262626; stroke-width: 0.75"/>
    <path d="M 253.08 403.409178 
L 297.72 403.409178 
L 297.72 378.07618 
L 253.08 378.07618 
z
" clip-path="url(#pb17ca2e60d)" style="fill: #e34a4a; stroke: #262626; stroke-width: 0.75"/>
    <path d="M 230.76 378.07618 
L 320.04 378.07618 
L 320.04 308.410435 
L 230.76 308.410435 
z
" clip-path="url(#pb17ca2e60d)" style="fill: #df2020; stroke: #262626; stroke-width: 0.75"/>
    <path d="M 253.08 308.410435 
L 297.72 308.410435 
L 297.72 243.811289 
L 253.08 243.811289 
z
" clip-path="url(#pb17ca2e60d)" style="fill: #e34a4a; stroke: #262626; stroke-width: 0.75"/>
    <path d="M 264.24 243.811289 
L 286.56 243.811289 
L 286.56 221.011591 
L 264.24 221.011591 
z
" clip-path="url(#pb17ca2e60d)" style="fill: #e66d6d; stroke: #262626; stroke-width: 0.75"/>
   </g>
   <g id="PathCollection_2">
    <defs>
     <path id="C1_0_b718e06cf6" d="M 0 2.5 
C 0.663008 2.5 1.29895 2.236584 1.767767 1.767767 
C 2.236584 1.29895 2.5 0.663008 2.5 -0 
C 2.5 -0.663008 2.236584 -1.29895 1.767767 -1.767767 
C 1.29895 -2.236584 0.663008 -2.5 0 -2.5 
C -0.663008 -2.5 -1.29895 -2.236584 -1.767767 -1.767767 
C -2.236584 -1.29895 -2.5 -0.663008 -2.5 0 
C -2.5 0.663008 -2.236584 1.29895 -1.767767 1.767767 
C -1.29895 2.236584 -0.663008 2.5 0 2.5 
z
"/>
    </defs>
    <g clip-path="url(#pb17ca2e60d)">
     <use xlink:href="#C1_0_b718e06cf6" x="275.4" y="160.212395" style="fill: none; stroke: #737373"/>
    </g>
    <g clip-path="url(#pb17ca2e60d)">
     <use xlink:href="#C1_0_b718e06cf6" x="275.4" y="490.402694" style="fill: none; stroke: #737373"/>
    </g>
    <g clip-path="url(#pb17ca2e60d)">
     <use xlink:href="#C1_0_b718e06cf6" x="275.4" y="489.541372" style="fill: none; stroke: #737373"/>
    </g>
    <g clip-path="url(#pb17ca2e60d)">
     <use xlink:href="#C1_0_b718e06cf6" x="275.4" y="195.678593" style="fill: none; stroke: #737373"/>
    </g>
    <g clip-path="url(#pb17ca2e60d)">
     <use xlink:href="#C1_0_b718e06cf6" x="275.4" y="484.474773" style="fill: none; stroke: #737373"/>
    </g>
    <g clip-path="url(#pb17ca2e60d)">
     <use xlink:href="#C1_0_b718e06cf6" x="275.4" y="180.478794" style="fill: none; stroke: #737373"/>
    </g>
    <g clip-path="url(#pb17ca2e60d)">
     <use xlink:href="#C1_0_b718e06cf6" x="275.4" y="205.811792" style="fill: none; stroke: #737373"/>
    </g>
    <g clip-path="url(#pb17ca2e60d)">
     <use xlink:href="#C1_0_b718e06cf6" x="275.4" y="139.945996" style="fill: none; stroke: #737373"/>
    </g>
    <g clip-path="url(#pb17ca2e60d)">
     <use xlink:href="#C1_0_b718e06cf6" x="275.4" y="190.611993" style="fill: none; stroke: #737373"/>
    </g>
    <g clip-path="url(#pb17ca2e60d)">
     <use xlink:href="#C1_0_b718e06cf6" x="275.4" y="491.21335" style="fill: none; stroke: #737373"/>
    </g>
    <g clip-path="url(#pb17ca2e60d)">
     <use xlink:href="#C1_0_b718e06cf6" x="275.4" y="489.541372" style="fill: none; stroke: #737373"/>
    </g>
    <g clip-path="url(#pb17ca2e60d)">
     <use xlink:href="#C1_0_b718e06cf6" x="275.4" y="490.402694" style="fill: none; stroke: #737373"/>
    </g>
   </g>
   <g id="PatchCollection_3">
    <path d="M 359.1 479.408173 
L 370.26 479.408173 
L 370.26 455.341825 
L 359.1 455.341825 
z
" clip-path="url(#pb17ca2e60d)" style="fill: #7db17d; stroke: #262626; stroke-width: 0.75"/>
    <path d="M 353.52 455.341825 
L 375.84 455.341825 
L 375.84 413.542377 
L 353.52 413.542377 
z
" clip-path="url(#pb17ca2e60d)" style="fill: #61a061; stroke: #262626; stroke-width: 0.75"/>
    <path d="M 342.36 413.542377 
L 387 413.542377 
L 387 393.275979 
L 342.36 393.275979 
z
" clip-path="url(#pb17ca2e60d)" style="fill: #3d8b3d; stroke: #262626; stroke-width: 0.75"/>
    <path d="M 320.04 393.275979 
L 409.32 393.275979 
L 409.32 327.410183 
L 320.04 327.410183 
z
" clip-path="url(#pb17ca2e60d)" style="fill: #107010; stroke: #262626; stroke-width: 0.75"/>
    <path d="M 342.36 327.410183 
L 387 327.410183 
L 387 291.943986 
L 342.36 291.943986 
z
" clip-path="url(#pb17ca2e60d)" style="fill: #3d8b3d; stroke: #262626; stroke-width: 0.75"/>
    <path d="M 353.52 291.943986 
L 375.84 291.943986 
L 375.84 266.610988 
L 353.52 266.610988 
z
" clip-path="url(#pb17ca2e60d)" style="fill: #61a061; stroke: #262626; stroke-width: 0.75"/>
    <path d="M 359.1 266.610988 
L 370.26 266.610988 
L 370.26 236.21139 
L 359.1 236.21139 
z
" clip-path="url(#pb17ca2e60d)" style="fill: #7db17d; stroke: #262626; stroke-width: 0.75"/>
   </g>
   <g id="PathCollection_3">
    <defs>
     <path id="C2_0_f16fce20e6" d="M 0 2.5 
C 0.663008 2.5 1.29895 2.236584 1.767767 1.767767 
C 2.236584 1.29895 2.5 0.663008 2.5 -0 
C 2.5 -0.663008 2.236584 -1.29895 1.767767 -1.767767 
C 1.29895 -2.236584 0.663008 -2.5 0 -2.5 
C -0.663008 -2.5 -1.29895 -2.236584 -1.767767 -1.767767 
C -2.236584 -1.29895 -2.5 -0.663008 -2.5 0 
C -2.5 0.663008 -2.236584 1.29895 -1.767767 1.767767 
C -1.29895 2.236584 -0.663008 2.5 0 2.5 
z
"/>
    </defs>
    <g clip-path="url(#pb17ca2e60d)">
     <use xlink:href="#C2_0_f16fce20e6" x="364.68" y="484.474773" style="fill: none; stroke: #737373"/>
    </g>
    <g clip-path="url(#pb17ca2e60d)">
     <use xlink:href="#C2_0_f16fce20e6" x="364.68" y="484.474773" style="fill: none; stroke: #737373"/>
    </g>
    <g clip-path="url(#pb17ca2e60d)">
     <use xlink:href="#C2_0_f16fce20e6" x="364.68" y="195.678593" style="fill: none; stroke: #737373"/>
    </g>
    <g clip-path="url(#pb17ca2e60d)">
     <use xlink:href="#C2_0_f16fce20e6" x="364.68" y="137.412697" style="fill: none; stroke: #737373"/>
    </g>
    <g clip-path="url(#pb17ca2e60d)">
     <use xlink:href="#C2_0_f16fce20e6" x="364.68" y="213.411691" style="fill: none; stroke: #737373"/>
    </g>
    <g clip-path="url(#pb17ca2e60d)">
     <use xlink:href="#C2_0_f16fce20e6" x="364.68" y="489.541372" style="fill: none; stroke: #737373"/>
    </g>
    <g clip-path="url(#pb17ca2e60d)">
     <use xlink:href="#C2_0_f16fce20e6" x="364.68" y="165.278995" style="fill: none; stroke: #737373"/>
    </g>
    <g clip-path="url(#pb17ca2e60d)">
     <use xlink:href="#C2_0_f16fce20e6" x="364.68" y="185.545393" style="fill: none; stroke: #737373"/>
    </g>
    <g clip-path="url(#pb17ca2e60d)">
     <use xlink:href="#C2_0_f16fce20e6" x="364.68" y="489.541372" style="fill: none; stroke: #737373"/>
    </g>
    <g clip-path="url(#pb17ca2e60d)">
     <use xlink:href="#C2_0_f16fce20e6" x="364.68" y="489.541372" style="fill: none; stroke: #737373"/>
    </g>
    <g clip-path="url(#pb17ca2e60d)">
     <use xlink:href="#C2_0_f16fce20e6" x="364.68" y="492.48" style="fill: none; stroke: #737373"/>
    </g>
    <g clip-path="url(#pb17ca2e60d)">
     <use xlink:href="#C2_0_f16fce20e6" x="364.68" y="484.474773" style="fill: none; stroke: #737373"/>
    </g>
    <g clip-path="url(#pb17ca2e60d)">
     <use xlink:href="#C2_0_f16fce20e6" x="364.68" y="119.679598" style="fill: none; stroke: #737373"/>
    </g>
   </g>
   <g id="PatchCollection_4">
    <path d="M 509.76 412.275728 
L 532.08 412.275728 
L 532.08 400.875878 
L 509.76 400.875878 
z
" clip-path="url(#pb17ca2e60d)" style="fill: #6d6de6; stroke: #262626; stroke-width: 0.75"/>
    <path d="M 498.6 400.875878 
L 543.24 400.875878 
L 543.24 378.07618 
L 498.6 378.07618 
z
" clip-path="url(#pb17ca2e60d)" style="fill: #4a4ae3; stroke: #262626; stroke-width: 0.75"/>
    <path d="M 476.28 378.07618 
L 565.56 378.07618 
L 565.56 271.677587 
L 476.28 271.677587 
z
" clip-path="url(#pb17ca2e60d)" style="fill: #2020df; stroke: #262626; stroke-width: 0.75"/>
    <path d="M 498.6 271.677587 
L 543.24 271.677587 
L 543.24 231.14479 
L 498.6 231.14479 
z
" clip-path="url(#pb17ca2e60d)" style="fill: #4a4ae3; stroke: #262626; stroke-width: 0.75"/>
    <path d="M 509.76 231.14479 
L 532.08 231.14479 
L 532.08 203.278492 
L 509.76 203.278492 
z
" clip-path="url(#pb17ca2e60d)" style="fill: #6d6de6; stroke: #262626; stroke-width: 0.75"/>
   </g>
   <g id="PathCollection_4">
    <defs>
     <path id="C3_0_02fcfc8147" d="M 0 2.5 
C 0.663008 2.5 1.29895 2.236584 1.767767 1.767767 
C 2.236584 1.29895 2.5 0.663008 2.5 -0 
C 2.5 -0.663008 2.236584 -1.29895 1.767767 -1.767767 
C 1.29895 -2.236584 0.663008 -2.5 0 -2.5 
C -0.663008 -2.5 -1.29895 -2.236584 -1.767767 -1.767767 
C -2.236584 -1.29895 -2.5 -0.663008 -2.5 0 
C -2.5 0.663008 -2.236584 1.29895 -1.767767 1.767767 
C -1.29895 2.236584 -0.663008 2.5 0 2.5 
z
"/>
    </defs>
    <g clip-path="url(#pb17ca2e60d)">
     <use xlink:href="#C3_0_02fcfc8147" x="520.92" y="200.745192" style="fill: none; stroke: #737373"/>
    </g>
    <g clip-path="url(#pb17ca2e60d)">
     <use xlink:href="#C3_0_02fcfc8147" x="520.92" y="200.745192" style="fill: none; stroke: #737373"/>
    </g>
    <g clip-path="url(#pb17ca2e60d)">
     <use xlink:href="#C3_0_02fcfc8147" x="520.92" y="200.745192" style="fill: none; stroke: #737373"/>
    </g>
    <g clip-path="url(#pb17ca2e60d)">
     <use xlink:href="#C3_0_02fcfc8147" x="520.92" y="175.412194" style="fill: none; stroke: #737373"/>
    </g>
    <g clip-path="url(#pb17ca2e60d)">
     <use xlink:href="#C3_0_02fcfc8147" x="520.92" y="484.474773" style="fill: none; stroke: #737373"/>
    </g>
    <g clip-path="url(#pb17ca2e60d)">
     <use xlink:href="#C3_0_02fcfc8147" x="520.92" y="413.542377" style="fill: none; stroke: #737373"/>
    </g>
    <g clip-path="url(#pb17ca2e60d)">
     <use xlink:href="#C3_0_02fcfc8147" x="520.92" y="190.611993" style="fill: none; stroke: #737373"/>
    </g>
    <g clip-path="url(#pb17ca2e60d)">
     <use xlink:href="#C3_0_02fcfc8147" x="520.92" y="423.675577" style="fill: none; stroke: #737373"/>
    </g>
    <g clip-path="url(#pb17ca2e60d)">
     <use xlink:href="#C3_0_02fcfc8147" x="520.92" y="413.542377" style="fill: none; stroke: #737373"/>
    </g>
    <g clip-path="url(#pb17ca2e60d)">
     <use xlink:href="#C3_0_02fcfc8147" x="520.92" y="418.608977" style="fill: none; stroke: #737373"/>
    </g>
    <g clip-path="url(#pb17ca2e60d)">
     <use xlink:href="#C3_0_02fcfc8147" x="520.92" y="180.478794" style="fill: none; stroke: #737373"/>
    </g>
    <g clip-path="url(#pb17ca2e60d)">
     <use xlink:href="#C3_0_02fcfc8147" x="520.92" y="413.542377" style="fill: none; stroke: #737373"/>
    </g>
   </g>
   <g id="PatchCollection_5">
    <path d="M 599.04 466.425011 
L 621.36 466.425011 
L 621.36 421.775602 
L 599.04 421.775602 
z
" clip-path="url(#pb17ca2e60d)" style="fill: #e66d6d; stroke: #262626; stroke-width: 0.75"/>
    <path d="M 587.88 421.775602 
L 632.52 421.775602 
L 632.52 381.87613 
L 587.88 381.87613 
z
" clip-path="url(#pb17ca2e60d)" style="fill: #e34a4a; stroke: #262626; stroke-width: 0.75"/>
    <path d="M 565.56 381.87613 
L 654.84 381.87613 
L 654.84 312.210385 
L 565.56 312.210385 
z
" clip-path="url(#pb17ca2e60d)" style="fill: #df2020; stroke: #262626; stroke-width: 0.75"/>
    <path d="M 587.88 312.210385 
L 632.52 312.210385 
L 632.52 272.944237 
L 587.88 272.944237 
z
" clip-path="url(#pb17ca2e60d)" style="fill: #e34a4a; stroke: #262626; stroke-width: 0.75"/>
    <path d="M 599.04 272.944237 
L 621.36 272.944237 
L 621.36 241.277989 
L 599.04 241.277989 
z
" clip-path="url(#pb17ca2e60d)" style="fill: #e66d6d; stroke: #262626; stroke-width: 0.75"/>
   </g>
   <g id="PathCollection_5">
    <defs>
     <path id="C4_0_8830dfe136" d="M 0 2.5 
C 0.663008 2.5 1.29895 2.236584 1.767767 1.767767 
C 2.236584 1.29895 2.5 0.663008 2.5 -0 
C 2.5 -0.663008 2.236584 -1.29895 1.767767 -1.767767 
C 1.29895 -2.236584 0.663008 -2.5 0 -2.5 
C -0.663008 -2.5 -1.29895 -2.236584 -1.767767 -1.767767 
C -2.236584 -1.29895 -2.5 -0.663008 -2.5 0 
C -2.5 0.663008 -2.236584 1.29895 -1.767767 1.767767 
C -1.29895 2.236584 -0.663008 2.5 0 2.5 
z
"/>
    </defs>
    <g clip-path="url(#pb17ca2e60d)">
     <use xlink:href="#C4_0_8830dfe136" x="610.2" y="215.944991" style="fill: none; stroke: #737373"/>
    </g>
    <g clip-path="url(#pb17ca2e60d)">
     <use xlink:href="#C4_0_8830dfe136" x="610.2" y="479.408173" style="fill: none; stroke: #737373"/>
    </g>
    <g clip-path="url(#pb17ca2e60d)">
     <use xlink:href="#C4_0_8830dfe136" x="610.2" y="469.274974" style="fill: none; stroke: #737373"/>
    </g>
    <g clip-path="url(#pb17ca2e60d)">
     <use xlink:href="#C4_0_8830dfe136" x="610.2" y="484.474773" style="fill: none; stroke: #737373"/>
    </g>
    <g clip-path="url(#pb17ca2e60d)">
     <use xlink:href="#C4_0_8830dfe136" x="610.2" y="474.341573" style="fill: none; stroke: #737373"/>
    </g>
    <g clip-path="url(#pb17ca2e60d)">
     <use xlink:href="#C4_0_8830dfe136" x="610.2" y="474.341573" style="fill: none; stroke: #737373"/>
    </g>
    <g clip-path="url(#pb17ca2e60d)">
     <use xlink:href="#C4_0_8830dfe136" x="610.2" y="205.811792" style="fill: none; stroke: #737373"/>
    </g>
    <g clip-path="url(#pb17ca2e60d)">
     <use xlink:href="#C4_0_8830dfe136" x="610.2" y="221.011591" style="fill: none; stroke: #737373"/>
    </g>
   </g>
   <g id="PatchCollection_6">
    <path d="M 688.32 484.474773 
L 710.64 484.474773 
L 710.64 469.274974 
L 688.32 469.274974 
z
" clip-path="url(#pb17ca2e60d)" style="fill: #61a061; stroke: #262626; stroke-width: 0.75"/>
    <path d="M 677.16 469.274974 
L 721.8 469.274974 
L 721.8 423.042252 
L 677.16 423.042252 
z
" clip-path="url(#pb17ca2e60d)" style="fill: #3d8b3d; stroke: #262626; stroke-width: 0.75"/>
    <path d="M 654.84 423.042252 
L 744.12 423.042252 
L 744.12 343.876632 
L 654.84 343.876632 
z
" clip-path="url(#pb17ca2e60d)" style="fill: #107010; stroke: #262626; stroke-width: 0.75"/>
    <path d="M 677.16 343.876632 
L 721.8 343.876632 
L 721.8 305.24381 
L 677.16 305.24381 
z
" clip-path="url(#pb17ca2e60d)" style="fill: #3d8b3d; stroke: #262626; stroke-width: 0.75"/>
    <path d="M 688.32 305.24381 
L 710.64 305.24381 
L 710.64 279.910812 
L 688.32 279.910812 
z
" clip-path="url(#pb17ca2e60d)" style="fill: #61a061; stroke: #262626; stroke-width: 0.75"/>
   </g>
   <g id="PathCollection_6">
    <defs>
     <path id="C5_0_7e244821b6" d="M 0 2.5 
C 0.663008 2.5 1.29895 2.236584 1.767767 1.767767 
C 2.236584 1.29895 2.5 0.663008 2.5 -0 
C 2.5 -0.663008 2.236584 -1.29895 1.767767 -1.767767 
C 1.29895 -2.236584 0.663008 -2.5 0 -2.5 
C -0.663008 -2.5 -1.29895 -2.236584 -1.767767 -1.767767 
C -2.236584 -1.29895 -2.5 -0.663008 -2.5 0 
C -2.5 0.663008 -2.236584 1.29895 -1.767767 1.767767 
C -1.29895 2.236584 -0.663008 2.5 0 2.5 
z
"/>
    </defs>
    <g clip-path="url(#pb17ca2e60d)">
     <use xlink:href="#C5_0_7e244821b6" x="699.48" y="256.477788" style="fill: none; stroke: #737373"/>
    </g>
    <g clip-path="url(#pb17ca2e60d)">
     <use xlink:href="#C5_0_7e244821b6" x="699.48" y="266.610988" style="fill: none; stroke: #737373"/>
    </g>
    <g clip-path="url(#pb17ca2e60d)">
     <use xlink:href="#C5_0_7e244821b6" x="699.48" y="489.541372" style="fill: none; stroke: #737373"/>
    </g>
    <g clip-path="url(#pb17ca2e60d)">
     <use xlink:href="#C5_0_7e244821b6" x="699.48" y="266.610988" style="fill: none; stroke: #737373"/>
    </g>
    <g clip-path="url(#pb17ca2e60d)">
     <use xlink:href="#C5_0_7e244821b6" x="699.48" y="266.610988" style="fill: none; stroke: #737373"/>
    </g>
    <g clip-path="url(#pb17ca2e60d)">
     <use xlink:href="#C5_0_7e244821b6" x="699.48" y="489.541372" style="fill: none; stroke: #737373"/>
    </g>
    <g clip-path="url(#pb17ca2e60d)">
     <use xlink:href="#C5_0_7e244821b6" x="699.48" y="490.808022" style="fill: none; stroke: #737373"/>
    </g>
    <g clip-path="url(#pb17ca2e60d)">
     <use xlink:href="#C5_0_7e244821b6" x="699.48" y="175.412194" style="fill: none; stroke: #737373"/>
    </g>
    <g clip-path="url(#pb17ca2e60d)">
     <use xlink:href="#C5_0_7e244821b6" x="699.48" y="490.808022" style="fill: none; stroke: #737373"/>
    </g>
    <g clip-path="url(#pb17ca2e60d)">
     <use xlink:href="#C5_0_7e244821b6" x="699.48" y="276.744187" style="fill: none; stroke: #737373"/>
    </g>
    <g clip-path="url(#pb17ca2e60d)">
     <use xlink:href="#C5_0_7e244821b6" x="699.48" y="251.411189" style="fill: none; stroke: #737373"/>
    </g>
   </g>
   <g id="patch_3">
    <path d="M 275.4 494.607972 
L 275.4 494.607972 
L 275.4 494.607972 
L 275.4 494.607972 
z
" clip-path="url(#pb17ca2e60d)" style="fill: #2020df; stroke: #262626; stroke-width: 0.75; stroke-linejoin: miter"/>
   </g>
   <g id="patch_4">
    <path d="M 275.4 494.607972 
L 275.4 494.607972 
L 275.4 494.607972 
L 275.4 494.607972 
z
" clip-path="url(#pb17ca2e60d)" style="fill: #df2020; stroke: #262626; stroke-width: 0.75; stroke-linejoin: miter"/>
   </g>
   <g id="patch_5">
    <path d="M 275.4 494.607972 
L 275.4 494.607972 
L 275.4 494.607972 
L 275.4 494.607972 
z
" clip-path="url(#pb17ca2e60d)" style="fill: #107010; stroke: #262626; stroke-width: 0.75; stroke-linejoin: miter"/>
   </g>
   <g id="line2d_10">
    <path d="M 141.48 291.943986 
L 230.76 291.943986 
" clip-path="url(#pb17ca2e60d)" style="fill: none; stroke: #262626; stroke-width: 0.9375"/>
   </g>
   <g id="line2d_11">
    <path d="M 230.76 342.609982 
L 320.04 342.609982 
" clip-path="url(#pb17ca2e60d)" style="fill: none; stroke: #262626; stroke-width: 0.9375"/>
   </g>
   <g id="line2d_12">
    <path d="M 320.04 367.942981 
L 409.32 367.942981 
" clip-path="url(#pb17ca2e60d)" style="fill: none; stroke: #262626; stroke-width: 0.9375"/>
   </g>
   <g id="line2d_13">
    <path d="M 476.28 317.276984 
L 565.56 317.276984 
" clip-path="url(#pb17ca2e60d)" style="fill: none; stroke: #262626; stroke-width: 0.9375"/>
   </g>
   <g id="line2d_14">
    <path d="M 565.56 352.743182 
L 654.84 352.743182 
" clip-path="url(#pb17ca2e60d)" style="fill: none; stroke: #262626; stroke-width: 0.9375"/>
   </g>
   <g id="line2d_15">
    <path d="M 654.84 385.676079 
L 744.12 385.676079 
" clip-path="url(#pb17ca2e60d)" style="fill: none; stroke: #262626; stroke-width: 0.9375"/>
   </g>
   <g id="patch_6">
    <path d="M 108 512.64 
L 108 69.12 
" style="fill: none; stroke: #ffffff; stroke-width: 1.25; stroke-linejoin: miter; stroke-linecap: square"/>
   </g>
   <g id="patch_7">
    <path d="M 777.6 512.64 
L 777.6 69.12 
" style="fill: none; stroke: #ffffff; stroke-width: 1.25; stroke-linejoin: miter; stroke-linecap: square"/>
   </g>
   <g id="patch_8">
    <path d="M 108 512.64 
L 777.6 512.64 
" style="fill: none; stroke: #ffffff; stroke-width: 1.25; stroke-linejoin: miter; stroke-linecap: square"/>
   </g>
   <g id="patch_9">
    <path d="M 108 69.12 
L 777.6 69.12 
" style="fill: none; stroke: #ffffff; stroke-width: 1.25; stroke-linejoin: miter; stroke-linecap: square"/>
   </g>
   <g id="text_14">
    <!-- Scatter plot of age and fare -->
    <g style="fill: #262626" transform="translate(334.2375 63.12) scale(0.18 -0.18)">
     <defs>
      <path id="ArialMT-53" d="M 288 1472 
L 859 1522 
Q 900 1178 1048 958 
Q 1197 738 1509 602 
Q 1822 466 2213 466 
Q 2559 466 2825 569 
Q 3091 672 3220 851 
Q 3350 1031 3350 1244 
Q 3350 1459 3225 1620 
Q 3100 1781 2813 1891 
Q 2628 1963 1997 2114 
Q 1366 2266 1113 2400 
Q 784 2572 623 2826 
Q 463 3081 463 3397 
Q 463 3744 659 4045 
Q 856 4347 1234 4503 
Q 1613 4659 2075 4659 
Q 2584 4659 2973 4495 
Q 3363 4331 3572 4012 
Q 3781 3694 3797 3291 
L 3216 3247 
Q 3169 3681 2898 3903 
Q 2628 4125 2100 4125 
Q 1550 4125 1298 3923 
Q 1047 3722 1047 3438 
Q 1047 3191 1225 3031 
Q 1400 2872 2139 2705 
Q 2878 2538 3153 2413 
Q 3553 2228 3743 1945 
Q 3934 1663 3934 1294 
Q 3934 928 3725 604 
Q 3516 281 3123 101 
Q 2731 -78 2241 -78 
Q 1619 -78 1198 103 
Q 778 284 539 648 
Q 300 1013 288 1472 
z
" transform="scale(0.015625)"/>
      <path id="ArialMT-63" d="M 2588 1216 
L 3141 1144 
Q 3050 572 2676 248 
Q 2303 -75 1759 -75 
Q 1078 -75 664 370 
Q 250 816 250 1647 
Q 250 2184 428 2587 
Q 606 2991 970 3192 
Q 1334 3394 1763 3394 
Q 2303 3394 2647 3120 
Q 2991 2847 3088 2344 
L 2541 2259 
Q 2463 2594 2264 2762 
Q 2066 2931 1784 2931 
Q 1359 2931 1093 2626 
Q 828 2322 828 1663 
Q 828 994 1084 691 
Q 1341 388 1753 388 
Q 2084 388 2306 591 
Q 2528 794 2588 1216 
z
" transform="scale(0.015625)"/>
      <path id="ArialMT-74" d="M 1650 503 
L 1731 6 
Q 1494 -44 1306 -44 
Q 1000 -44 831 53 
Q 663 150 594 308 
Q 525 466 525 972 
L 525 2881 
L 113 2881 
L 113 3319 
L 525 3319 
L 525 4141 
L 1084 4478 
L 1084 3319 
L 1650 3319 
L 1650 2881 
L 1084 2881 
L 1084 941 
Q 1084 700 1114 631 
Q 1144 563 1211 522 
Q 1278 481 1403 481 
Q 1497 481 1650 503 
z
" transform="scale(0.015625)"/>
      <path id="ArialMT-20" transform="scale(0.015625)"/>
      <path id="ArialMT-70" d="M 422 -1272 
L 422 3319 
L 934 3319 
L 934 2888 
Q 1116 3141 1344 3267 
Q 1572 3394 1897 3394 
Q 2322 3394 2647 3175 
Q 2972 2956 3137 2557 
Q 3303 2159 3303 1684 
Q 3303 1175 3120 767 
Q 2938 359 2589 142 
Q 2241 -75 1856 -75 
Q 1575 -75 1351 44 
Q 1128 163 984 344 
L 984 -1272 
L 422 -1272 
z
M 931 1641 
Q 931 1000 1190 694 
Q 1450 388 1819 388 
Q 2194 388 2461 705 
Q 2728 1022 2728 1688 
Q 2728 2322 2467 2637 
Q 2206 2953 1844 2953 
Q 1484 2953 1207 2617 
Q 931 2281 931 1641 
z
" transform="scale(0.015625)"/>
      <path id="ArialMT-6f" d="M 213 1659 
Q 213 2581 725 3025 
Q 1153 3394 1769 3394 
Q 2453 3394 2887 2945 
Q 3322 2497 3322 1706 
Q 3322 1066 3130 698 
Q 2938 331 2570 128 
Q 2203 -75 1769 -75 
Q 1072 -75 642 372 
Q 213 819 213 1659 
z
M 791 1659 
Q 791 1022 1069 705 
Q 1347 388 1769 388 
Q 2188 388 2466 706 
Q 2744 1025 2744 1678 
Q 2744 2294 2464 2611 
Q 2184 2928 1769 2928 
Q 1347 2928 1069 2612 
Q 791 2297 791 1659 
z
" transform="scale(0.015625)"/>
      <path id="ArialMT-67" d="M 319 -275 
L 866 -356 
Q 900 -609 1056 -725 
Q 1266 -881 1628 -881 
Q 2019 -881 2231 -725 
Q 2444 -569 2519 -288 
Q 2563 -116 2559 434 
Q 2191 0 1641 0 
Q 956 0 581 494 
Q 206 988 206 1678 
Q 206 2153 378 2554 
Q 550 2956 876 3175 
Q 1203 3394 1644 3394 
Q 2231 3394 2613 2919 
L 2613 3319 
L 3131 3319 
L 3131 450 
Q 3131 -325 2973 -648 
Q 2816 -972 2473 -1159 
Q 2131 -1347 1631 -1347 
Q 1038 -1347 672 -1080 
Q 306 -813 319 -275 
z
M 784 1719 
Q 784 1066 1043 766 
Q 1303 466 1694 466 
Q 2081 466 2343 764 
Q 2606 1063 2606 1700 
Q 2606 2309 2336 2618 
Q 2066 2928 1684 2928 
Q 1309 2928 1046 2623 
Q 784 2319 784 1719 
z
" transform="scale(0.015625)"/>
      <path id="ArialMT-6e" d="M 422 0 
L 422 3319 
L 928 3319 
L 928 2847 
Q 1294 3394 1984 3394 
Q 2284 3394 2536 3286 
Q 2788 3178 2913 3003 
Q 3038 2828 3088 2588 
Q 3119 2431 3119 2041 
L 3119 0 
L 2556 0 
L 2556 2019 
Q 2556 2363 2490 2533 
Q 2425 2703 2258 2804 
Q 2091 2906 1866 2906 
Q 1506 2906 1245 2678 
Q 984 2450 984 1813 
L 984 0 
L 422 0 
z
" transform="scale(0.015625)"/>
      <path id="ArialMT-64" d="M 2575 0 
L 2575 419 
Q 2259 -75 1647 -75 
Q 1250 -75 917 144 
Q 584 363 401 755 
Q 219 1147 219 1656 
Q 219 2153 384 2558 
Q 550 2963 881 3178 
Q 1213 3394 1622 3394 
Q 1922 3394 2156 3267 
Q 2391 3141 2538 2938 
L 2538 4581 
L 3097 4581 
L 3097 0 
L 2575 0 
z
M 797 1656 
Q 797 1019 1065 703 
Q 1334 388 1700 388 
Q 2069 388 2326 689 
Q 2584 991 2584 1609 
Q 2584 2291 2321 2609 
Q 2059 2928 1675 2928 
Q 1300 2928 1048 2622 
Q 797 2316 797 1656 
z
" transform="scale(0.015625)"/>
     </defs>
     <use xlink:href="#ArialMT-53"/>
     <use xlink:href="#ArialMT-63" x="66.699219"/>
     <use xlink:href="#ArialMT-61" x="116.699219"/>
     <use xlink:href="#ArialMT-74" x="172.314453"/>
     <use xlink:href="#ArialMT-74" x="200.097656"/>
     <use xlink:href="#ArialMT-65" x="227.880859"/>
     <use xlink:href="#ArialMT-72" x="283.496094"/>
     <use xlink:href="#ArialMT-20" x="316.796875"/>
     <use xlink:href="#ArialMT-70" x="344.580078"/>
     <use xlink:href="#ArialMT-6c" x="400.195312"/>
     <use xlink:href="#ArialMT-6f" x="422.412109"/>
     <use xlink:href="#ArialMT-74" x="478.027344"/>
     <use xlink:href="#ArialMT-20" x="505.810547"/>
     <use xlink:href="#ArialMT-6f" x="533.59375"/>
     <use xlink:href="#ArialMT-66" x="589.208984"/>
     <use xlink:href="#ArialMT-20" x="616.992188"/>
     <use xlink:href="#ArialMT-61" x="644.775391"/>
     <use xlink:href="#ArialMT-67" x="700.390625"/>
     <use xlink:href="#ArialMT-65" x="756.005859"/>
     <use xlink:href="#ArialMT-20" x="811.621094"/>
     <use xlink:href="#ArialMT-61" x="839.404297"/>
     <use xlink:href="#ArialMT-6e" x="895.019531"/>
     <use xlink:href="#ArialMT-64" x="950.634766"/>
     <use xlink:href="#ArialMT-20" x="1006.25"/>
     <use xlink:href="#ArialMT-66" x="1034.033203"/>
     <use xlink:href="#ArialMT-61" x="1061.816406"/>
     <use xlink:href="#ArialMT-72" x="1117.431641"/>
     <use xlink:href="#ArialMT-65" x="1150.732422"/>
    </g>
   </g>
   <g id="legend_1">
    <g id="patch_10">
     <path d="M 388.420898 504.39 
L 497.179102 504.39 
Q 500.479102 504.39 500.479102 501.09 
L 500.479102 408.009141 
Q 500.479102 404.709141 497.179102 404.709141 
L 388.420898 404.709141 
Q 385.120898 404.709141 385.120898 408.009141 
L 385.120898 501.09 
Q 385.120898 504.39 388.420898 504.39 
z
" style="fill: #eaeaf2; opacity: 0.8; stroke: #cccccc; stroke-linejoin: miter"/>
    </g>
    <g id="text_15">
     <!-- class -->
     <g style="fill: #262626" transform="translate(422.295469 424.193203) scale(0.18 -0.18)">
      <use xlink:href="#ArialMT-63"/>
      <use xlink:href="#ArialMT-6c" x="50"/>
      <use xlink:href="#ArialMT-61" x="72.216797"/>
      <use xlink:href="#ArialMT-73" x="127.832031"/>
      <use xlink:href="#ArialMT-73" x="177.832031"/>
     </g>
    </g>
    <g id="patch_11">
     <path d="M 391.720898 447.831094 
L 424.720898 447.831094 
L 424.720898 436.281094 
L 391.720898 436.281094 
z
" style="fill: #2020df; stroke: #262626; stroke-width: 0.75; stroke-linejoin: miter"/>
    </g>
    <g id="text_16">
     <!-- First -->
     <g style="fill: #262626" transform="translate(437.920898 447.831094) scale(0.165 -0.165)">
      <defs>
       <path id="ArialMT-46" d="M 525 0 
L 525 4581 
L 3616 4581 
L 3616 4041 
L 1131 4041 
L 1131 2622 
L 3281 2622 
L 3281 2081 
L 1131 2081 
L 1131 0 
L 525 0 
z
" transform="scale(0.015625)"/>
       <path id="ArialMT-69" d="M 425 3934 
L 425 4581 
L 988 4581 
L 988 3934 
L 425 3934 
z
M 425 0 
L 425 3319 
L 988 3319 
L 988 0 
L 425 0 
z
" transform="scale(0.015625)"/>
      </defs>
      <use xlink:href="#ArialMT-46"/>
      <use xlink:href="#ArialMT-69" x="61.083984"/>
      <use xlink:href="#ArialMT-72" x="83.300781"/>
      <use xlink:href="#ArialMT-73" x="116.601562"/>
      <use xlink:href="#ArialMT-74" x="166.601562"/>
     </g>
    </g>
    <g id="patch_12">
     <path d="M 391.720898 471.170859 
L 424.720898 471.170859 
L 424.720898 459.620859 
L 391.720898 459.620859 
z
" style="fill: #df2020; stroke: #262626; stroke-width: 0.75; stroke-linejoin: miter"/>
    </g>
    <g id="text_17">
     <!-- Second -->
     <g style="fill: #262626" transform="translate(437.920898 471.170859) scale(0.165 -0.165)">
      <use xlink:href="#ArialMT-53"/>
      <use xlink:href="#ArialMT-65" x="66.699219"/>
      <use xlink:href="#ArialMT-63" x="122.314453"/>
      <use xlink:href="#ArialMT-6f" x="172.314453"/>
      <use xlink:href="#ArialMT-6e" x="227.929688"/>
      <use xlink:href="#ArialMT-64" x="283.544922"/>
     </g>
    </g>
    <g id="patch_13">
     <path d="M 391.720898 494.510625 
L 424.720898 494.510625 
L 424.720898 482.960625 
L 391.720898 482.960625 
z
" style="fill: #107010; stroke: #262626; stroke-width: 0.75; stroke-linejoin: miter"/>
    </g>
    <g id="text_18">
     <!-- Third -->
     <g style="fill: #262626" transform="translate(437.920898 494.510625) scale(0.165 -0.165)">
      <defs>
       <path id="ArialMT-54" d="M 1659 0 
L 1659 4041 
L 150 4041 
L 150 4581 
L 3781 4581 
L 3781 4041 
L 2266 4041 
L 2266 0 
L 1659 0 
z
" transform="scale(0.015625)"/>
       <path id="ArialMT-68" d="M 422 0 
L 422 4581 
L 984 4581 
L 984 2938 
Q 1378 3394 1978 3394 
Q 2347 3394 2619 3248 
Q 2891 3103 3008 2847 
Q 3125 2591 3125 2103 
L 3125 0 
L 2563 0 
L 2563 2103 
Q 2563 2525 2380 2717 
Q 2197 2909 1863 2909 
Q 1613 2909 1392 2779 
Q 1172 2650 1078 2428 
Q 984 2206 984 1816 
L 984 0 
L 422 0 
z
" transform="scale(0.015625)"/>
      </defs>
      <use xlink:href="#ArialMT-54"/>
      <use xlink:href="#ArialMT-68" x="61.083984"/>
      <use xlink:href="#ArialMT-69" x="116.699219"/>
      <use xlink:href="#ArialMT-72" x="138.916016"/>
      <use xlink:href="#ArialMT-64" x="172.216797"/>
     </g>
    </g>
   </g>
  </g>
 </g>
 <defs>
  <clipPath id="pb17ca2e60d">
   <rect x="108" y="69.12" width="669.6" height="443.52"/>
  </clipPath>
 </defs>
</svg>
